<svg width="50" height="50" viewBox="0 0 50 50" fill="none" xmlns="http://www.w3.org/2000/svg">
<path d="M41 22.5H9C7.62 22.5 7.5 23.6175 7.5 25C7.5 26.3825 7.62 27.5 9 27.5H41C42.38 27.5 42.5 26.3825 42.5 25C42.5 23.6175 42.38 22.5 41 22.5V22.5ZM41 32.5H9C7.62 32.5 7.5 33.6175 7.5 35C7.5 36.3825 7.62 37.5 9 37.5H41C42.38 37.5 42.5 36.3825 42.5 35C42.5 33.6175 42.38 32.5 41 32.5V32.5ZM9 17.5H41C42.38 17.5 42.5 16.3825 42.5 15C42.5 13.6175 42.38 12.5 41 12.5H9C7.62 12.5 7.5 13.6175 7.5 15C7.5 16.3825 7.62 17.5 9 17.5Z" fill="#FF3838"/>
</svg>
