<svg width="27" height="27" viewBox="0 0 27 27" fill="none" xmlns="http://www.w3.org/2000/svg">
<path d="M14.5577 13.5L20.7752 7.28249C20.8981 7.13901 20.9623 6.95445 20.955 6.7657C20.9477 6.57694 20.8695 6.39789 20.7359 6.26431C20.6023 6.13074 20.4233 6.05249 20.2345 6.0452C20.0458 6.03791 19.8612 6.10212 19.7177 6.22499L13.5002 12.4425L7.28272 6.21749C7.1415 6.07626 6.94995 5.99692 6.75022 5.99692C6.5505 5.99692 6.35895 6.07626 6.21772 6.21749C6.0765 6.35871 5.99716 6.55026 5.99716 6.74999C5.99716 6.94971 6.0765 7.14126 6.21772 7.28249L12.4427 13.5L6.21772 19.7175C6.13921 19.7847 6.07545 19.8675 6.03043 19.9605C5.98541 20.0536 5.96011 20.1549 5.95613 20.2582C5.95214 20.3615 5.96954 20.4645 6.00725 20.5607C6.04495 20.657 6.10215 20.7444 6.17524 20.8175C6.24833 20.8906 6.33574 20.9478 6.43198 20.9855C6.52823 21.0232 6.63122 21.0406 6.73451 21.0366C6.8378 21.0326 6.93915 21.0073 7.0322 20.9623C7.12525 20.9173 7.20799 20.8535 7.27522 20.775L13.5002 14.5575L19.7177 20.775C19.8612 20.8979 20.0458 20.9621 20.2345 20.9548C20.4233 20.9475 20.6023 20.8692 20.7359 20.7357C20.8695 20.6021 20.9477 20.423 20.955 20.2343C20.9623 20.0455 20.8981 19.861 20.7752 19.7175L14.5577 13.5Z" fill="#FF3838"/>
</svg>
